<?xml version="1.0" encoding="UTF-8"?>
<svg version="1.1" xmlns="http://www.w3.org/2000/svg" width="512" height="512">
<path d="M0 0 C1.59750183 -0.00374023 3.19500183 -0.00834323 4.79249895 -0.01373065 C9.16703737 -0.02593021 13.54149913 -0.02570377 17.91605067 -0.02334189 C22.64016182 -0.02293295 27.36424864 -0.03398032 32.08834839 -0.04345703 C41.33853984 -0.06005176 50.5887058 -0.0655659 59.83891089 -0.06668179 C67.3609782 -0.06763307 74.88303712 -0.07174738 82.40510178 -0.07808304 C103.74690878 -0.09569198 125.08869568 -0.10492256 146.43051 -0.10342209 C148.1553972 -0.10330222 148.1553972 -0.10330222 149.91513062 -0.10317993 C151.64213216 -0.10305729 151.64213216 -0.10305729 153.40402262 -0.10293217 C172.05574704 -0.10211957 190.70739066 -0.12125163 209.35909171 -0.14945666 C228.52559515 -0.17821068 247.69205921 -0.19199554 266.85858476 -0.19026911 C277.6130193 -0.18960604 288.36736914 -0.19506202 299.12178421 -0.21662521 C308.27977468 -0.23487022 317.43764207 -0.23915717 326.59564288 -0.22560637 C331.26386415 -0.21909322 335.9318495 -0.21889945 340.60004807 -0.23631287 C344.88249626 -0.25212232 349.16452303 -0.24910036 353.44696145 -0.2317446 C354.98732789 -0.22869191 356.52772641 -0.232241 358.06805499 -0.24346475 C378.35524329 -0.38137189 396.0336807 5.55446062 411.28866577 19.26742554 C412.20518921 20.04473022 412.20518921 20.04473022 413.14022827 20.83773804 C425.16274577 31.76230873 433.57483748 49.50790497 434.47641063 65.62332273 C434.55240029 69.74302269 434.56525165 73.85856651 434.55609131 77.97875977 C434.55983154 79.57626159 434.56443454 81.17376159 434.56982195 82.77125871 C434.58202152 87.14579713 434.58179508 91.5202589 434.5794332 95.89481044 C434.57902426 100.61892158 434.59007163 105.34300841 434.59954834 110.06710815 C434.61614307 119.31729961 434.62165721 128.56746556 434.6227731 137.81767066 C434.62372438 145.33973797 434.62783869 152.86179689 434.63417435 160.38386154 C434.65178329 181.72566854 434.66101387 203.06745545 434.6595134 224.40926977 C434.65939353 226.13415697 434.65939353 226.13415697 434.65927124 227.89389038 C434.65918948 229.04522474 434.65910772 230.1965591 434.65902348 231.38278238 C434.65821088 250.03450681 434.67734294 268.68615042 434.70554797 287.33785148 C434.73430198 306.50435492 434.74808685 325.67081898 434.74636042 344.83734453 C434.74569735 355.59177907 434.75115333 366.34612891 434.77271652 377.10054398 C434.79096153 386.25853445 434.79524848 395.41640183 434.78169768 404.57440265 C434.77518453 409.24262391 434.77499076 413.91060926 434.79240417 418.57880783 C434.80821363 422.86125603 434.80519167 427.1432828 434.78783591 431.42572121 C434.78478322 432.96608766 434.78833231 434.50648618 434.79955606 436.04681475 C434.9374632 456.33400305 429.00163069 474.01244046 415.28866577 489.26742554 C414.51136108 490.18394897 414.51136108 490.18394897 413.71835327 491.11898804 C402.79378257 503.14150554 385.04818634 511.55359725 368.93276858 512.45517039 C364.81306862 512.53116006 360.6975248 512.54401142 356.57733154 512.53485107 C354.97982972 512.5385913 353.38232972 512.54319431 351.7848326 512.54858172 C347.41029418 512.56078129 343.03583241 512.56055484 338.66128087 512.55819297 C333.93716973 512.55778403 329.2130829 512.5688314 324.48898315 512.57830811 C315.2387917 512.59490283 305.98862574 512.60041698 296.73842065 512.60153286 C289.21635334 512.60248414 281.69429442 512.60659846 274.17222977 512.61293411 C252.83042277 512.63054305 231.48863586 512.63977363 210.14682154 512.63827316 C208.42193434 512.6381533 208.42193434 512.6381533 206.66220093 512.63803101 C204.93519939 512.63790836 204.93519939 512.63790836 203.17330892 512.63778324 C184.5215845 512.63697064 165.86994089 512.65610271 147.21823983 512.68430774 C128.05173639 512.71306175 108.88527233 512.72684662 89.71874678 512.72512019 C78.96431224 512.72445711 68.2099624 512.72991309 57.45554733 512.75147629 C48.29755686 512.76972129 39.13968948 512.77400825 29.98168866 512.76045744 C25.3134674 512.7539443 20.64548205 512.75375052 15.97728348 512.77116394 C11.69483528 512.7869734 7.41280851 512.78395143 3.1303701 512.76659568 C1.59000365 512.76354298 0.04960513 512.76709207 -1.49072345 512.77831583 C-21.77791174 512.91622296 -39.45634916 506.98039046 -54.71133423 493.26742554 C-55.62785767 492.49012085 -55.62785767 492.49012085 -56.56289673 491.69711304 C-68.58541423 480.77254234 -76.99750594 463.0269461 -77.89907908 446.91152835 C-77.97506875 442.79182839 -77.98792011 438.67628457 -77.97875977 434.55609131 C-77.98249999 432.95858948 -77.987103 431.36108948 -77.99249041 429.76359236 C-78.00468998 425.38905394 -78.00446354 421.01459217 -78.00210166 416.64004064 C-78.00169272 411.91592949 -78.01274009 407.19184267 -78.0222168 402.46774292 C-78.03881152 393.21755147 -78.04432567 383.96738551 -78.04544155 374.71718042 C-78.04639284 367.19511311 -78.05050715 359.67305419 -78.0568428 352.15098953 C-78.07445174 330.80918253 -78.08368232 309.46739563 -78.08218186 288.12558131 C-78.08210194 286.97565651 -78.08202203 285.8257317 -78.0819397 284.64096069 C-78.08185794 283.48962633 -78.08177617 282.33829197 -78.08169194 281.15206869 C-78.08087933 262.50034426 -78.1000114 243.84870065 -78.12821643 225.19699959 C-78.15697044 206.03049616 -78.17075531 186.8640321 -78.16902888 167.69750655 C-78.1683658 156.94307201 -78.17382179 146.18872217 -78.19538498 135.4343071 C-78.21362999 126.27631663 -78.21791694 117.11844924 -78.20436613 107.96044843 C-78.19785299 103.29222716 -78.19765922 98.62424181 -78.21507263 93.95604324 C-78.23088209 89.67359504 -78.22786012 85.39156827 -78.21050437 81.10912986 C-78.20745168 79.56876342 -78.21100077 78.0283649 -78.22222452 76.48803632 C-78.36013165 56.20084802 -72.42429915 38.52241061 -58.71133423 23.26742554 C-58.1931311 22.65640991 -57.67492798 22.04539429 -57.14102173 21.41586304 C-42.33533987 5.12217295 -21.13651093 -0.04699237 0 0 Z " fill="#22B2FC" transform="translate(77.71133422851563,-0.267425537109375)"/>
<path d="M0 0 C1.27399658 0.24943359 1.27399658 0.24943359 2.57373047 0.50390625 C31.97779436 6.44523254 59.29249861 18.55523657 83 37 C83.56299805 37.43602539 84.12599609 37.87205078 84.70605469 38.32128906 C104.58998804 53.94012467 121.54876857 72.97881383 134 95 C134.35513672 95.61746094 134.71027344 96.23492187 135.07617188 96.87109375 C160.64787755 141.63265828 166.88558081 195.23638513 153.3972168 244.91040039 C144.50925707 276.14924273 128.91109373 303.9978701 106.45947266 327.47314453 C105.47491573 328.50315775 104.4955186 329.53812459 103.52099609 330.57763672 C91.36337803 343.51403459 77.47572371 354.2785854 62 363 C61.32308105 363.38752441 60.64616211 363.77504883 59.94873047 364.17431641 C14.57150718 389.95614378 -38.79175807 395.39253874 -89 382 C-141.30201913 367.25234423 -183.31833426 331.2904068 -209.73779297 284.3347168 C-214.30100257 275.89917037 -217.67829041 266.97993991 -221 258 C-221.25265625 257.33645508 -221.5053125 256.67291016 -221.765625 255.98925781 C-225.94651937 244.95053531 -228.11719383 233.61882997 -230 222 C-230.18022705 220.9179126 -230.3604541 219.8358252 -230.54614258 218.72094727 C-231.83749327 210.46217521 -232.35255163 202.41727012 -232.3125 194.0625 C-232.30686035 192.80614746 -232.3012207 191.54979492 -232.29541016 190.25537109 C-231.61627582 137.1954796 -208.77282691 88.26092847 -171.40112305 51.09863281 C-161.00821874 41.0088725 -149.25259371 32.67366049 -137 25 C-136.10087891 24.43200684 -136.10087891 24.43200684 -135.18359375 23.85253906 C-118.44094462 13.42906474 -99.34645158 5.79630163 -80 2 C-79.1538916 1.82774902 -78.3077832 1.65549805 -77.43603516 1.47802734 C-51.66431097 -3.75108421 -25.96943627 -5.17047761 0 0 Z " fill="#D6E6F7" transform="translate(292,63)"/>
<path d="M0 0 C25.03540184 -0.09044456 50.07067052 -0.1640659 75.1061945 -0.20724869 C86.73174469 -0.22783598 98.35718583 -0.25588307 109.98266602 -0.30175781 C120.12053788 -0.34174316 130.25833074 -0.36746064 140.39627928 -0.37635398 C145.75963245 -0.38154895 151.12275967 -0.39367859 156.48604012 -0.42292023 C161.54461164 -0.45027444 166.60286628 -0.45840493 171.66150475 -0.45243073 C173.50805006 -0.45352208 175.35460709 -0.46135583 177.20108795 -0.4768219 C198.5496159 -0.64671282 216.7352811 4.37936821 233 19 C233.91652344 19.77730469 233.91652344 19.77730469 234.8515625 20.5703125 C246.87408 31.4948832 255.28617171 49.24047944 256.18774486 65.35589719 C256.26373452 69.47559715 256.27658588 73.59114097 256.26742554 77.71133423 C256.27116576 79.30883606 256.27576877 80.90633605 256.28115618 82.50383317 C256.29335575 86.8783716 256.29312931 91.25283336 256.29076743 95.6273849 C256.29035849 100.35149605 256.30140586 105.07558287 256.31088257 109.79968262 C256.32747729 119.04987407 256.33299144 128.30004003 256.33410732 137.55024512 C256.33505861 145.07231243 256.33917292 152.59437135 256.34550858 160.116436 C256.36311751 181.458243 256.37234809 202.80002991 256.37084763 224.14184423 C256.37076772 225.29176903 256.3706878 226.44169383 256.37060547 227.62646484 C256.37052371 228.77779921 256.37044195 229.92913357 256.37035771 231.11535685 C256.36954511 249.76708127 256.38867717 268.41872489 256.4168822 287.07042594 C256.44563621 306.23692938 256.45942108 325.40339344 256.45769465 344.56991899 C256.45703158 355.32435353 256.46248756 366.07870337 256.48405075 376.83311844 C256.50229576 385.99110891 256.50658271 395.14897629 256.4930319 404.30697711 C256.48651876 408.97519837 256.48632499 413.64318372 256.5037384 418.31138229 C256.51954786 422.59383049 256.5165259 426.87585726 256.49917014 431.15829568 C256.49611745 432.69866212 256.49966654 434.23906064 256.51089029 435.77938922 C256.64879742 456.06657752 250.71296492 473.74501493 237 489 C236.48179687 489.61101562 235.96359375 490.22203125 235.4296875 490.8515625 C224.76542739 502.58760754 207.63185312 510.81232069 191.89915168 512.18303704 C189.78116658 512.24862354 187.67164048 512.25745068 185.55271912 512.24050903 C184.75282013 512.24221788 183.95292115 512.24392673 183.12878281 512.24568737 C180.47565366 512.24895496 177.82278319 512.23802408 175.16967773 512.22705078 C173.25704453 512.22648608 171.3444109 512.22680439 169.43177795 512.22793579 C164.25888385 512.22850799 159.0860831 512.21677523 153.91321063 512.20278788 C148.50001169 512.19025831 143.08681045 512.18910826 137.67359924 512.18673706 C127.43158066 512.18052883 117.18960493 512.1641269 106.94760519 512.14403808 C95.28377918 512.12165863 83.61995108 512.1106805 71.95610893 512.10064721 C47.97071007 512.0797601 23.98536995 512.04309206 0 512 C0 492.2 0 472.4 0 452 C7.59 451.34 15.18 450.68 23 450 C26.88165306 449.50541739 30.6637628 449.00579131 34.5 448.3125 C35.43030029 448.14588867 36.36060059 447.97927734 37.3190918 447.80761719 C88.05395333 438.15842088 133.14358948 407.80941196 162.18554688 365.26318359 C164.61974018 361.5975878 166.83489451 357.82919483 169 354 C169.35513672 353.38253906 169.71027344 352.76507813 170.07617188 352.12890625 C195.1949682 308.16012932 201.72861699 255.27930438 189.10961914 206.32836914 C180.34278063 174.22575417 164.38076282 145.50945583 141.41210938 121.47949219 C140.4756544 120.4983516 139.54457769 119.51204753 138.61914062 118.52050781 C126.81902227 105.89654481 113.04157751 95.48847489 98 87 C97.3390332 86.61779297 96.67806641 86.23558594 95.99707031 85.84179688 C65.93440154 68.5732088 34.1864002 62.27909335 0 60 C0 40.2 0 20.4 0 0 Z " fill="#2C80FC" transform="translate(256,0)"/>
<path d="M0 0 C0 9.57 0 19.14 0 29 C-2.97 30.32 -5.94 31.64 -9 33 C-12.85482561 37.04756689 -14.12126228 39.58381031 -14.15390015 45.08401489 C-14.16250061 46.16062881 -14.17110107 47.23724274 -14.17996216 48.34648132 C-14.18422211 49.53296768 -14.18848206 50.71945404 -14.19287109 51.94189453 C-14.20104858 53.18754684 -14.20922607 54.43319916 -14.21765137 55.71659851 C-14.24254415 59.85533322 -14.25918422 63.99403129 -14.2734375 68.1328125 C-14.27879766 69.55845013 -14.28417517 70.98408769 -14.28956985 72.40972519 C-14.31120379 78.34257442 -14.32993811 84.27542093 -14.34119225 90.20829964 C-14.35741414 98.70386739 -14.3905425 107.19897649 -14.44759309 115.69437134 C-14.48635374 121.67070805 -14.50583239 127.64692243 -14.51111281 133.6233815 C-14.51475924 137.19080151 -14.52670284 140.75773245 -14.55921555 144.32501602 C-14.59501931 148.31072519 -14.59090968 152.29586413 -14.58349609 156.28173828 C-14.59990143 157.45607925 -14.61630676 158.63042023 -14.63320923 159.84034729 C-14.57959229 166.88873509 -13.78611114 171.67647907 -9 177 C-8.24174644 177.65393014 -7.48349287 178.30786028 -6.70226192 178.98160648 C-1.79871235 183.22836758 0.56512803 185.97785448 1.08229065 192.58705139 C1.10831943 195.17988677 1.08661518 197.74295088 1.02172852 200.33227539 C1.01918561 201.76215452 1.02062315 203.19204538 1.02571106 204.62191772 C1.02827984 208.4797461 0.97559993 212.33502503 0.91254544 216.19226384 C0.8560501 220.23200033 0.85097876 224.27180381 0.84031677 228.31187439 C0.81241108 235.95135891 0.73865043 243.58967587 0.64817137 251.22864765 C0.54736144 259.92985539 0.49803753 268.63112069 0.45291245 277.33276761 C0.35899264 295.22250552 0.20082445 313.11115869 0 331 C-1.57657377 331.00616934 -3.15315465 331.01053503 -4.72973633 331.01416016 C-5.60769363 331.01678864 -6.48565094 331.01941711 -7.39021301 331.02212524 C-51.62026577 330.64715184 -92.02676636 308.32958057 -122.453125 277.515625 C-154.94311204 242.75361089 -167.32342089 197.5742352 -166 151 C-164.30495631 117.28516764 -148.19246292 82.0774831 -126 57 C-125.35611328 56.26571777 -125.35611328 56.26571777 -124.69921875 55.51660156 C-110.88265348 39.81867402 -95.35943133 27.8628573 -77 18 C-76.01515625 17.46632813 -75.0303125 16.93265625 -74.015625 16.3828125 C-60.58709607 9.37820146 -46.76794017 5.09962821 -32 2 C-31.08347656 1.773125 -30.16695312 1.54625 -29.22265625 1.3125 C-19.67713434 -0.85899314 -9.71448187 -0.12375136 0 0 Z " fill="#EAF5FE" transform="translate(256,91)"/>
<path d="M0 0 C16.92887664 -0.34606677 33.32822597 -0.31932636 50 3 C50.84933105 3.16628906 51.69866211 3.33257812 52.57373047 3.50390625 C81.97779436 9.44523254 109.29249861 21.55523657 133 40 C133.56299805 40.43602539 134.12599609 40.87205078 134.70605469 41.32128906 C154.58998804 56.94012467 171.54876857 75.97881383 184 98 C184.35513672 98.61746094 184.71027344 99.23492187 185.07617188 99.87109375 C210.64787755 144.63265828 216.88558081 198.23638513 203.3972168 247.91040039 C194.50925707 279.14924273 178.91109373 306.9978701 156.45947266 330.47314453 C155.47491573 331.50315775 154.4955186 332.53812459 153.52099609 333.57763672 C141.36337803 346.51403459 127.47572371 357.2785854 112 366 C111.32308105 366.38752441 110.64616211 366.77504883 109.94873047 367.17431641 C78.31045815 385.1501293 43.23057748 393.02286993 7 392 C7 391.67 7 391.34 7 391 C9.31 391 11.62 391 14 391 C14 381.1 14 371.2 14 361 C17.031875 360.9175 20.06375 360.835 23.1875 360.75 C66.21226482 358.87862636 106.87417951 338.90653036 136.25 307.625 C160.77088069 279.52561599 177.91860294 242.66082797 179 205 C179.02046387 204.3179248 179.04092773 203.63584961 179.06201172 202.93310547 C180.16539126 160.33900776 166.47504482 117.67711316 137.06640625 86.22265625 C135.2088233 84.22461334 133.48178749 82.16872803 131.75 80.0625 C102.02996656 46.18438848 56.94921685 34.29492169 14 30 C14 20.43 14 10.86 14 1 C9.38 1 4.76 1 0 1 C0 0.67 0 0.34 0 0 Z " fill="#A2C1E4" transform="translate(242,60)"/>
<path d="M0 0 C0 9.57 0 19.14 0 29 C-4.5478125 29.37125 -4.5478125 29.37125 -9.1875 29.75 C-31.67748525 31.81511814 -52.76510701 36.78384671 -73 47 C-73.58845703 47.29100586 -74.17691406 47.58201172 -74.78320312 47.88183594 C-113.75316913 67.2438853 -142.44850623 101.30333499 -156.77734375 142.21972656 C-160.25222943 152.62090463 -162.35496074 163.17386328 -164 174 C-164.185625 175.05703125 -164.37125 176.1140625 -164.5625 177.203125 C-167.07902582 199.04297409 -165.09414341 222.17232256 -158 243 C-157.75765625 243.71865234 -157.5153125 244.43730469 -157.265625 245.17773438 C-144.17071429 283.59589154 -120.43632494 314.49102021 -86 336 C-84.33710938 337.04994141 -84.33710938 337.04994141 -82.640625 338.12109375 C-68.87584792 346.40904051 -53.59116728 352.20094597 -38 356 C-37.07755493 356.24097412 -37.07755493 356.24097412 -36.13647461 356.48681641 C-28.83242805 358.2806131 -21.4093992 358.9028215 -13.9375 359.625 C-7.0384375 360.305625 -7.0384375 360.305625 0 361 C0 370.57 0 380.14 0 390 C-24.85418517 390.79153456 -47.78507983 386.97847263 -71 378 C-71.70624512 377.72961914 -72.41249023 377.45923828 -73.14013672 377.18066406 C-118.3812703 359.5166229 -158.11643608 321.92388719 -178.08691406 277.58691406 C-180.56797265 271.79027945 -182.81288249 265.91267337 -185 260 C-185.25265625 259.33645508 -185.5053125 258.67291016 -185.765625 257.98925781 C-189.94651937 246.95053531 -192.11719383 235.61882997 -194 224 C-194.18022705 222.9179126 -194.3604541 221.8358252 -194.54614258 220.72094727 C-195.83749327 212.46217521 -196.35255163 204.41727012 -196.3125 196.0625 C-196.30686035 194.80614746 -196.3012207 193.54979492 -196.29541016 192.25537109 C-195.61627582 139.1954796 -172.77282691 90.26092847 -135.40112305 53.09863281 C-125.00821874 43.0088725 -113.25259371 34.67366049 -101 27 C-100.10087891 26.43200684 -100.10087891 26.43200684 -99.18359375 25.85253906 C-83.11762482 15.85034566 -64.63864582 8.12041756 -46.06103516 4.42089844 C-43.75285981 3.94952977 -41.46269047 3.41571635 -39.16796875 2.8828125 C-25.91399911 -0.05750928 -13.58061349 -0.33326659 0 0 Z " fill="#BDD6F3" transform="translate(256,61)"/>
<path d="M0 0 C4.16554447 2.54168815 7.12298804 5.4713569 9 10 C9.10249424 12.19143963 9.10249424 12.19143963 8.89491272 14.61515808 C8.78788104 16.00161042 8.78788104 16.00161042 8.6786871 17.41607189 C8.59144155 18.42498643 8.504196 19.43390097 8.41430664 20.47338867 C8.24783272 22.69529087 8.08454717 24.9174336 7.92398071 27.13977051 C7.79443937 28.91439415 7.79443937 28.91439415 7.66228104 30.72486877 C6.85624826 42.53156044 6.40979315 54.35938083 6.0625 66.1875 C6.04232016 66.86787465 6.02214032 67.54824929 6.00134897 68.24924135 C4.64930466 114.36154227 4.64930466 114.36154227 26.45475769 153.62825012 C37.78590561 165.30402372 50.92925066 175.38469792 64.60227966 184.1558075 C67.75167107 186.57814338 68.78475178 188.48325094 69.3359375 192.3671875 C69.44274336 199.22412389 67.95104939 202.5767827 63.4375 207.8125 C60.6499663 210.11524523 57.65598745 210.21126918 54.1875 210.3125 C52.94033203 210.36857422 52.94033203 210.36857422 51.66796875 210.42578125 C45.49465558 209.44058193 41.01704628 204.31105629 36.7668457 200.04150391 C36.17582062 199.45558975 35.58479553 198.8696756 34.9758606 198.26600647 C33.03733659 196.34130332 31.10625072 194.40934187 29.17578125 192.4765625 C27.82412727 191.1287987 26.47225101 189.78125778 25.12016296 188.43392944 C22.2934092 185.61462111 19.47054092 182.79148984 16.65014648 179.96582031 C13.04059226 176.35046458 9.41978375 172.74661891 5.79575825 169.14577675 C3.00323996 166.36800649 0.2176966 163.58332281 -2.56589699 160.79661179 C-3.89797147 159.46504967 -5.23240243 158.1358405 -6.56925011 156.80907059 C-8.43844747 154.95224473 -10.29780885 153.0860803 -12.1550293 151.21728516 C-12.70521225 150.67474594 -13.2553952 150.13220673 -13.82225037 149.57322693 C-20.86281965 142.43558047 -21.44149884 136.3483387 -21.40405273 126.57226562 C-21.41091599 125.32281662 -21.41777924 124.07336761 -21.42485046 122.78605652 C-21.4399873 119.3706439 -21.44162063 115.95577835 -21.43590808 112.54037285 C-21.43281157 109.68497647 -21.43891368 106.8296292 -21.44494683 103.97423983 C-21.45897826 97.23685376 -21.45744185 90.49959454 -21.44604492 83.76220703 C-21.43455998 76.81950451 -21.44864851 69.87718811 -21.4754414 62.93453646 C-21.49761367 56.96491675 -21.50423251 50.99541812 -21.49836498 45.02576017 C-21.49499842 41.46416693 -21.49739038 37.90282129 -21.51461601 34.34126282 C-21.53298668 30.36993317 -21.51888224 26.39907698 -21.50170898 22.42773438 C-21.51137695 21.25248703 -21.52104492 20.07723969 -21.53100586 18.86637878 C-21.47422516 12.6017491 -21.25677399 8.7346782 -17 4 C-11.52248401 -0.94312418 -7.05928997 -1.91993956 0 0 Z " fill="#151F1F" transform="translate(262,121)"/>
<path d="M0 0 C-0.99 0.33 -1.98 0.66 -3 1 C-3 52.48 -3 103.96 -3 157 C-10.94296117 150.19174757 -10.94296117 150.19174757 -13.3125 147.375 C-14.01826172 146.55128906 -14.01826172 146.55128906 -14.73828125 145.7109375 C-17.45693364 142.02434386 -18.25106389 139.24980909 -18.26742554 134.66201782 C-18.27595551 133.57976425 -18.28448547 132.49751068 -18.29327393 131.38246155 C-18.29236755 130.20002365 -18.29146118 129.01758575 -18.29052734 127.79931641 C-18.29724457 126.55015945 -18.30396179 125.3010025 -18.31088257 124.01399231 C-18.32662829 120.59030742 -18.33323775 117.16686511 -18.33451414 113.74316072 C-18.33593656 111.60297769 -18.34020787 109.46282001 -18.34550858 107.32264328 C-18.36400755 99.85277443 -18.37217937 92.38297693 -18.37060547 84.91308594 C-18.36940414 77.95567226 -18.39050486 70.99856884 -18.4220928 64.04123366 C-18.44826507 58.06317458 -18.45897237 52.08521677 -18.45769465 46.10710084 C-18.45718528 42.53875403 -18.46285398 38.97068297 -18.48405075 35.40239334 C-18.50705443 31.42129705 -18.49790632 27.44062457 -18.48583984 23.45947266 C-18.49707886 22.28108322 -18.50831787 21.10269379 -18.51989746 19.88859558 C-18.47152179 13.61517753 -18.26673517 9.73957373 -14 5 C-9.3343047 0.78949449 -6.23205741 -0.13849016 0 0 Z " fill="#394949" transform="translate(259,120)"/>
<path d="M0 0 C4.97062143 2.59659328 8.33750558 5.84845425 10.14453125 11.26953125 C10.70454694 17.09369442 9.7159593 20.76060334 6.14453125 25.26953125 C2.60836335 28.55311573 -0.13723669 29.54991384 -4.85546875 29.76953125 C-9.53987636 29.57229304 -12.27408124 28.41416418 -15.85546875 25.26953125 C-19.60407625 21.00387444 -20.21856445 17.07372638 -20.12890625 11.55078125 C-19.61846145 7.29221316 -17.58144207 4.64091104 -14.27734375 2.015625 C-9.70647605 -0.93896741 -5.29135027 -2.08312106 0 0 Z " fill="#152123" transform="translate(441.85546875,60.73046875)"/>
<path d="M0 0 C4.5984402 2.30913053 7.28906155 5.49999732 9 10.34765625 C9.64279658 15.58185696 8.85275218 18.92097183 6 23.34765625 C2.09801571 26.94948791 -1.01767068 29.12324161 -6.3125 29.72265625 C-10.64060234 29.28251025 -13.74877396 28.20455042 -17 25.34765625 C-20.40157964 20.91559808 -21.77358902 16.08840446 -21.5234375 10.52734375 C-20.57377441 6.57277655 -18.07917305 3.89715504 -15 1.34765625 C-10.32281041 -1.47755524 -5.1786629 -1.68913419 0 0 Z " fill="#152023" transform="translate(443,422.65234375)"/>
<path d="M0 0 C3.51520834 2.3707219 5.79390381 5.02530762 7.6875 8.8125 C8.34965061 14.14226964 8.07938026 18.75041163 5.08203125 23.3046875 C1.53716012 27.13751735 -2.78693417 28.54007753 -7.8125 29.4375 C-12.74255823 28.55713246 -15.77816371 26.29111477 -19.3125 22.8125 C-22.28303052 18.44953329 -22.95530221 15.04674654 -22.3125 9.8125 C-18.52448394 -0.37448105 -9.93029212 -3.55991604 0 0 Z " fill="#384B4C" transform="translate(82.3125,423.1875)"/>
<path d="M0 0 C3.64717016 3.12614585 5.76489028 6.4204486 6.57421875 11.12109375 C6.83769246 16.50867682 5.78053981 19.68312022 2.1875 23.875 C-1.94879127 27.50992263 -5.99174535 28.39957724 -11.390625 28.35546875 C-15.97072033 27.44683694 -18.85511975 24.32407184 -21.8125 20.875 C-24.16249419 16.95834301 -24.28784068 13.39073647 -23.8125 8.875 C-18.44687134 -1.26007637 -10.45903742 -4.18361497 0 0 Z " fill="#384A4C" transform="translate(83.8125,62.125)"/>
</svg>
